:version	1.10
:name	0101
:units
	mass	kg
	length	m
	angle	deg
:documentation
	fps:30
:root
	axis	XYZ
	order	TX	TY	TZ	RX	RY	RZ
	position	0.00	0.00	0.00
	orientation	0.00	0.00	0.00
:bonedata
	begin
		id	1
		name	Head
		direction	-18.5	116.2	-38.8
		length	123.9
		axis	0.0	0.0	0.0	XYZ
		dof	rx	ry	rz
		limits	(-inf	inf)
			(-inf	inf)
			(-inf	inf)
	end
	begin
		id	2
		name	Neck
		direction	-1.6	89.5	-15.3
		length	90.8
		axis	0.0	0.0	0.0	XYZ
		dof	rx	ry	rz
		limits	(-inf	inf)
			(-inf	inf)
			(-inf	inf)
	end
	begin
		id	3
		name	LeftCollar
		direction	-5.0	276.0	-47.2
		length	280.1
		axis	0.0	0.0	0.0	XYZ
		dof	rx	ry	rz
		limits	(-inf	inf)
			(-inf	inf)
			(-inf	inf)
	end
	begin
		id	4
		name	Torso
		direction	4.0	199.4	8.5
		length	199.7
		axis	0.0	0.0	0.0	XYZ
		dof	rx	ry	rz
		limits	(-inf	inf)
			(-inf	inf)
			(-inf	inf)
	end
	begin
		id	5
		name	LeftShoulder
		direction	170.7	-14.1	-44.7
		length	177.0
		axis	0.0	0.0	0.0	XYZ
		dof	rx	ry	rz
		limits	(-inf	inf)
			(-inf	inf)
			(-inf	inf)
	end
	begin
		id	6
		name	RightShoulder
		direction	-174.2	6.3	52.4
		length	182.0
		axis	0.0	0.0	0.0	XYZ
		dof	rx	ry	rz
		limits	(-inf	inf)
			(-inf	inf)
			(-inf	inf)
	end
	begin
		id	7
		name	LeftElbow
		direction	55.3	-271.7	26.6
		length	278.5
		axis	0.0	0.0	0.0	XYZ
		dof	rx	ry	rz
		limits	(-inf	inf)
			(-inf	inf)
			(-inf	inf)
	end
	begin
		id	8
		name	RightElbow
		direction	-37.0	-268.0	66.2
		length	278.5
		axis	0.0	0.0	0.0	XYZ
		dof	rx	ry	rz
		limits	(-inf	inf)
			(-inf	inf)
			(-inf	inf)
	end
	begin
		id	9
		name	LeftWrist
		direction	69.1	-260.5	-128.7
		length	298.7
		axis	0.0	0.0	0.0	XYZ
		dof	rx	ry	rz
		limits	(-inf	inf)
			(-inf	inf)
			(-inf	inf)
	end
	begin
		id	10
		name	RightWrist
		direction	-79.9	-277.4	-76.9
		length	298.7
		axis	0.0	0.0	0.0	XYZ
		dof	rx	ry	rz
		limits	(-inf	inf)
			(-inf	inf)
			(-inf	inf)
	end
	begin
		id	11
		name	LeftHand
		direction	13.8	-52.1	-25.7
		length	59.7
		axis	0.0	0.0	0.0	XYZ
		dof	rx	ry	rz
		limits	(-inf	inf)
			(-inf	inf)
			(-inf	inf)
	end
	begin
		id	12
		name	RightHand
		direction	-16.0	-55.5	-15.4
		length	59.7
		axis	0.0	0.0	0.0	XYZ
		dof	rx	ry	rz
		limits	(-inf	inf)
			(-inf	inf)
			(-inf	inf)
	end
	begin
		id	13
		name	LeftHip
		direction	117.3	-70.1	12.8
		length	137.3
		axis	0.0	0.0	0.0	XYZ
		dof	rx	ry	rz
		limits	(-inf	inf)
			(-inf	inf)
			(-inf	inf)
	end
	begin
		id	14
		name	RightHip
		direction	-108.5	-76.7	41.0
		length	139.0
		axis	0.0	0.0	0.0	XYZ
		dof	rx	ry	rz
		limits	(-inf	inf)
			(-inf	inf)
			(-inf	inf)
	end
	begin
		id	15
		name	LeftKnee
		direction	-0.2	-428.3	-95.5
		length	438.9
		axis	0.0	0.0	0.0	XYZ
		dof	rx	ry	rz
		limits	(-inf	inf)
			(-inf	inf)
			(-inf	inf)
	end
	begin
		id	16
		name	RightKnee
		direction	16.9	-434.8	-56.9
		length	438.9
		axis	0.0	0.0	0.0	XYZ
		dof	rx	ry	rz
		limits	(-inf	inf)
			(-inf	inf)
			(-inf	inf)
	end
	begin
		id	17
		name	LeftAnkle
		direction	51.1	-389.3	75.6
		length	399.8
		axis	0.0	0.0	0.0	XYZ
		dof	rx	ry	rz
		limits	(-inf	inf)
			(-inf	inf)
			(-inf	inf)
	end
	begin
		id	18
		name	RightAnkle
		direction	-36.9	-388.8	85.6
		length	399.8
		axis	0.0	0.0	0.0	XYZ
		dof	rx	ry	rz
		limits	(-inf	inf)
			(-inf	inf)
			(-inf	inf)
	end
:hierarchy
	begin
		Neck	Head
		LeftCollar	Neck	LeftShoulder	RightShoulder
		Torso	LeftCollar
		root	Torso	LeftHip	RightHip
		LeftShoulder	LeftElbow
		RightShoulder	RightElbow
		LeftElbow	LeftWrist
		RightElbow	RightWrist
		LeftWrist	LeftHand
		RightWrist	RightHand
		LeftHip	LeftKnee
		RightHip	RightKnee
		LeftKnee	LeftAnkle
		RightKnee	RightAnkle
	end

:FULLY-SPECIFIED
:DEGREES
24
Head	-8.21	15.55	-1.00
Neck	-8.21	15.55	-1.00
LeftCollar	-8.21	15.55	-1.00
Torso	-8.21	15.55	-1.00
root	143.05	6.57	2743.06	-4.61	6.75	0.32
LeftShoulder	8.59	-4.67	-79.20
RightShoulder	43.05	18.88	76.42
LeftElbow	9.30	22.85	-74.86
RightElbow	40.50	-6.05	54.46
LeftWrist	9.40	24.32	-74.59
RightWrist	40.53	-6.32	54.23
LeftHand	9.40	24.32	-74.59
RightHand	40.53	-6.32	54.23
LeftHip	7.28	26.14	2.18
RightHip	2.04	-28.29	0.83
LeftKnee	-12.43	26.14	2.18
RightKnee	-14.25	-28.29	0.83
LeftAnkle	-12.43	26.14	2.18
RightAnkle	-14.25	-28.29	0.83
25
Head	-8.18	14.83	-0.88
Neck	-8.18	14.83	-0.88
LeftCollar	-8.18	14.83	-0.88
Torso	-8.18	14.83	-0.88
root	145.00	5.54	2741.31	-4.87	8.01	0.66
LeftShoulder	7.26	-4.59	-78.99
RightShoulder	39.62	20.66	65.74
LeftElbow	7.89	23.54	-75.23
RightElbow	36.64	-0.78	48.87
LeftWrist	8.00	25.16	-74.98
RightWrist	36.64	-0.19	49.32
LeftHand	8.00	25.16	-74.98
RightHand	36.64	-0.19	49.32
LeftHip	3.56	30.15	1.81
RightHip	-0.35	-28.72	-0.01
LeftKnee	-7.25	30.15	1.81
RightKnee	-6.54	-28.72	-0.01
LeftAnkle	-7.25	30.15	1.81
RightAnkle	-6.54	-28.72	-0.01
26
Head	-8.18	14.91	-0.85
Neck	-8.18	14.91	-0.85
LeftCollar	-8.18	14.91	-0.85
Torso	-8.18	14.91	-0.85
root	146.03	5.19	2741.04	-4.72	8.39	0.68
LeftShoulder	7.34	-4.68	-78.95
RightShoulder	41.23	21.97	61.58
LeftElbow	7.98	23.41	-75.16
RightElbow	37.68	0.72	43.99
LeftWrist	8.09	25.09	-74.90
RightWrist	37.69	1.30	44.44
LeftHand	8.09	25.09	-74.90
RightHand	37.69	1.30	44.44
LeftHip	3.50	31.94	1.78
RightHip	-0.76	-29.14	0.31
LeftKnee	-7.71	31.94	1.78
RightKnee	-8.22	-29.14	0.31
LeftAnkle	-7.71	31.94	1.78
RightAnkle	-8.22	-29.14	0.31
27
Head	-8.28	15.21	-0.84
Neck	-8.28	15.21	-0.84
LeftCollar	-8.28	15.21	-0.84
Torso	-8.28	15.21	-0.84
root	147.02	4.90	2740.91	-4.45	8.49	0.72
LeftShoulder	7.34	-4.81	-78.80
RightShoulder	44.52	24.06	57.84
LeftElbow	7.98	23.61	-74.96
RightElbow	39.83	1.45	37.20
LeftWrist	8.10	25.40	-74.69
RightWrist	39.84	1.74	37.44
LeftHand	8.10	25.40	-74.69
RightHand	39.84	1.74	37.44
LeftHip	3.64	32.99	1.64
RightHip	-0.95	-29.63	0.43
LeftKnee	-8.51	32.99	1.64
RightKnee	-8.73	-29.63	0.43
LeftAnkle	-8.51	32.99	1.64
RightAnkle	-8.73	-29.63	0.43
28
Head	-8.28	15.21	-0.84
Neck	-8.28	15.21	-0.84
LeftCollar	-8.28	15.21	-0.84
Torso	-8.28	15.21	-0.84
root	147.02	4.90	2740.91	-4.45	8.49	0.72
LeftShoulder	7.34	-4.81	-78.80
RightShoulder	44.52	24.06	57.84
LeftElbow	7.98	23.61	-74.96
RightElbow	39.83	1.45	37.20
LeftWrist	8.10	25.40	-74.69
RightWrist	39.84	1.74	37.44
LeftHand	8.10	25.40	-74.69
RightHand	39.84	1.74	37.44
LeftHip	3.64	32.99	1.64
RightHip	-0.95	-29.63	0.43
LeftKnee	-8.51	32.99	1.64
RightKnee	-8.73	-29.63	0.43
LeftAnkle	-8.51	32.99	1.64
RightAnkle	-8.73	-29.63	0.43
29
Head	-8.50	15.77	-0.85
Neck	-8.50	15.77	-0.85
LeftCollar	-8.50	15.77	-0.85
Torso	-8.50	15.77	-0.85
root	148.22	4.79	2740.80	-3.53	8.06	1.16
LeftShoulder	7.65	-5.10	-78.78
RightShoulder	45.23	26.22	54.51
LeftElbow	8.33	23.72	-74.72
RightElbow	39.58	1.68	31.89
LeftWrist	8.45	25.59	-74.42
RightWrist	39.58	1.74	31.95
LeftHand	8.45	25.59	-74.42
RightHand	39.58	1.74	31.95
LeftHip	5.75	32.73	1.54
RightHip	-0.07	-30.21	0.61
LeftKnee	-10.32	32.73	1.54
RightKnee	-11.97	-30.21	0.61
LeftAnkle	-10.32	32.73	1.54
RightAnkle	-11.97	-30.21	0.61
30
Head	-8.98	16.32	-0.87
Neck	-8.98	16.32	-0.87
LeftCollar	-8.98	16.32	-0.87
Torso	-8.98	16.32	-0.87
root	149.49	4.97	2740.70	-4.00	8.32	0.88
LeftShoulder	8.23	-5.74	-78.84
RightShoulder	41.03	28.50	48.55
LeftElbow	8.96	23.91	-74.36
RightElbow	35.30	3.28	28.33
LeftWrist	9.11	25.91	-74.00
RightWrist	35.31	3.49	28.47
LeftHand	9.11	25.91	-74.00
RightHand	35.31	3.49	28.47
LeftHip	4.74	33.62	1.50
RightHip	-1.16	-30.75	0.55
LeftKnee	-9.76	33.62	1.50
RightKnee	-11.03	-30.75	0.55
LeftAnkle	-9.76	33.62	1.50
RightAnkle	-11.03	-30.75	0.55
31
Head	-9.68	16.45	-0.63
Neck	-9.68	16.45	-0.63
LeftCollar	-9.68	16.45	-0.63
Torso	-9.68	16.45	-0.63
root	152.00	10.19	2740.70	-3.32	8.41	0.63
LeftShoulder	9.28	-6.76	-78.74
RightShoulder	32.04	29.98	35.55
LeftElbow	10.13	24.42	-73.42
RightElbow	27.54	6.43	21.53
LeftWrist	10.31	26.60	-72.98
RightWrist	27.59	7.18	21.93
LeftHand	10.31	26.60	-72.98
RightHand	27.59	7.18	21.93
LeftHip	4.78	33.44	1.32
RightHip	0.79	-30.02	0.20
LeftKnee	-10.12	33.44	1.32
RightKnee	-11.87	-30.02	0.20
LeftAnkle	-10.12	33.44	1.32
RightAnkle	-11.87	-30.02	0.20
32
Head	-9.87	16.60	-0.57
Neck	-9.87	16.60	-0.57
LeftCollar	-9.87	16.60	-0.57
Torso	-9.87	16.60	-0.57
root	152.84	13.80	2740.83	-2.48	8.06	0.51
LeftShoulder	8.97	-7.02	-78.76
RightShoulder	30.23	30.62	30.15
LeftElbow	9.79	24.49	-73.57
RightElbow	25.91	7.42	17.21
LeftWrist	9.97	26.69	-73.14
RightWrist	25.96	8.24	17.61
LeftHand	9.97	26.69	-73.14
RightHand	25.96	8.24	17.61
LeftHip	6.01	32.44	1.31
RightHip	2.20	-29.50	0.14
LeftKnee	-11.33	32.44	1.31
RightKnee	-13.49	-29.50	0.14
LeftAnkle	-11.33	32.44	1.31
RightAnkle	-13.49	-29.50	0.14
33
Head	-10.08	16.39	-0.41
Neck	-10.08	16.39	-0.41
LeftCollar	-10.08	16.39	-0.41
Torso	-10.08	16.39	-0.41
root	153.93	16.64	2740.95	-2.26	7.96	0.44
LeftShoulder	8.33	-7.27	-78.63
RightShoulder	28.90	31.64	25.14
LeftElbow	9.10	24.68	-73.73
RightElbow	24.63	9.09	13.14
LeftWrist	9.28	26.91	-73.33
RightWrist	24.69	9.97	13.54
LeftHand	9.28	26.91	-73.33
RightHand	24.69	9.97	13.54
LeftHip	6.49	31.63	1.16
RightHip	2.63	-28.72	0.25
LeftKnee	-12.08	31.63	1.16
RightKnee	-14.71	-28.72	0.25
LeftAnkle	-12.08	31.63	1.16
RightAnkle	-14.71	-28.72	0.25
34
Head	-10.08	16.39	-0.41
Neck	-10.08	16.39	-0.41
LeftCollar	-10.08	16.39	-0.41
Torso	-10.08	16.39	-0.41
root	153.93	16.64	2740.95	-2.26	7.96	0.44
LeftShoulder	8.33	-7.27	-78.63
RightShoulder	28.90	31.64	25.14
LeftElbow	9.10	24.68	-73.73
RightElbow	24.63	9.09	13.14
LeftWrist	9.28	26.91	-73.33
RightWrist	24.69	9.97	13.54
LeftHand	9.28	26.91	-73.33
RightHand	24.69	9.97	13.54
LeftHip	6.49	31.63	1.16
RightHip	2.63	-28.72	0.25
LeftKnee	-12.08	31.63	1.16
RightKnee	-14.71	-28.72	0.25
LeftAnkle	-12.08	31.63	1.16
RightAnkle	-14.71	-28.72	0.25
35
Head	-10.25	16.07	-0.28
Neck	-10.25	16.07	-0.28
LeftCollar	-10.25	16.07	-0.28
Torso	-10.25	16.07	-0.28
root	154.47	18.88	2741.04	-2.31	7.83	0.28
LeftShoulder	7.64	-7.44	-78.47
RightShoulder	28.51	32.36	20.76
LeftElbow	8.35	24.84	-73.94
RightElbow	24.20	10.45	9.21
LeftWrist	8.51	27.05	-73.58
RightWrist	24.28	11.32	9.61
LeftHand	8.51	27.05	-73.58
RightHand	24.28	11.32	9.61
LeftHip	6.50	30.82	1.07
RightHip	2.88	-27.91	0.23
LeftKnee	-12.10	30.82	1.07
RightKnee	-14.84	-27.91	0.23
LeftAnkle	-12.10	30.82	1.07
RightAnkle	-14.84	-27.91	0.23
36
Head	-10.33	15.89	-0.27
Neck	-10.33	15.89	-0.27
LeftCollar	-10.33	15.89	-0.27
Torso	-10.33	15.89	-0.27
root	154.69	20.58	2741.15	-2.94	7.67	0.16
LeftShoulder	7.20	-7.51	-78.35
RightShoulder	27.38	32.52	16.20
LeftElbow	7.88	24.97	-74.06
RightElbow	23.45	12.95	6.19
LeftWrist	8.03	27.15	-73.72
RightWrist	23.56	13.99	6.66
LeftHand	8.03	27.15	-73.72
RightHand	23.56	13.99	6.66
LeftHip	5.45	31.38	0.90
RightHip	2.48	-27.78	0.24
LeftKnee	-10.78	31.38	0.90
RightKnee	-13.72	-27.78	0.24
LeftAnkle	-10.78	31.38	0.90
RightAnkle	-13.72	-27.78	0.24
37
Head	-10.40	15.99	-0.35
Neck	-10.40	15.99	-0.35
LeftCollar	-10.40	15.99	-0.35
Torso	-10.40	15.99	-0.35
root	154.84	23.00	2741.34	-3.67	7.66	0.07
LeftShoulder	7.08	-7.61	-78.28
RightShoulder	31.32	33.29	8.97
LeftElbow	7.73	24.80	-74.07
RightElbow	26.77	15.20	-1.97
LeftWrist	7.87	26.88	-73.76
RightWrist	26.84	15.75	-1.68
LeftHand	7.87	26.88	-73.76
RightHand	26.84	15.75	-1.68
LeftHip	4.23	35.07	0.68
RightHip	0.60	-29.78	0.71
LeftKnee	-9.26	35.07	0.68
RightKnee	-12.37	-29.78	0.71
LeftAnkle	-9.26	35.07	0.68
RightAnkle	-12.37	-29.78	0.71
38
Head	-10.44	16.09	-0.47
Neck	-10.44	16.09	-0.47
LeftCollar	-10.44	16.09	-0.47
Torso	-10.44	16.09	-0.47
root	154.86	23.78	2741.45	-3.75	8.45	0.17
LeftShoulder	7.20	-7.67	-78.29
RightShoulder	31.14	33.50	5.90
LeftElbow	7.85	24.53	-74.05
RightElbow	26.60	15.58	-4.88
LeftWrist	7.98	26.55	-73.74
RightWrist	26.66	16.05	-4.64
LeftHand	7.98	26.55	-73.74
RightHand	26.66	16.05	-4.64
LeftHip	3.04	37.09	0.62
RightHip	-1.63	-29.96	0.64
LeftKnee	-7.19	37.09	0.62
RightKnee	-7.23	-29.96	0.64
LeftAnkle	-7.19	37.09	0.62
RightAnkle	-7.23	-29.96	0.64
39
Head	-10.44	16.22	-0.51
Neck	-10.44	16.22	-0.51
LeftCollar	-10.44	16.22	-0.51
Torso	-10.44	16.22	-0.51
root	154.87	24.38	2741.54	-2.41	7.53	0.21
LeftShoulder	7.60	-7.75	-78.37
RightShoulder	29.31	33.79	1.48
LeftElbow	8.25	24.02	-73.96
RightElbow	25.02	15.89	-8.58
LeftWrist	8.38	25.97	-73.65
RightWrist	25.08	16.33	-8.36
LeftHand	8.38	25.97	-73.65
RightHand	25.08	16.33	-8.36
LeftHip	6.07	35.84	1.04
RightHip	0.67	-30.95	0.91
LeftKnee	-9.79	35.84	1.04
RightKnee	-9.86	-30.95	0.91
LeftAnkle	-9.79	35.84	1.04
RightAnkle	-9.86	-30.95	0.91
40
Head	-10.44	16.22	-0.51
Neck	-10.44	16.22	-0.51
LeftCollar	-10.44	16.22	-0.51
Torso	-10.44	16.22	-0.51
root	154.87	24.38	2741.54	-2.41	7.53	0.21
LeftShoulder	7.60	-7.75	-78.37
RightShoulder	29.31	33.79	1.48
LeftElbow	8.25	24.02	-73.96
RightElbow	25.02	15.89	-8.58
LeftWrist	8.38	25.97	-73.65
RightWrist	25.08	16.33	-8.36
LeftHand	8.38	25.97	-73.65
RightHand	25.08	16.33	-8.36
LeftHip	6.07	35.84	1.04
RightHip	0.67	-30.95	0.91
LeftKnee	-9.79	35.84	1.04
RightKnee	-9.86	-30.95	0.91
LeftAnkle	-9.79	35.84	1.04
RightAnkle	-9.86	-30.95	0.91
41
Head	-10.48	16.40	-0.73
Neck	-10.48	16.40	-0.73
LeftCollar	-10.48	16.40	-0.73
Torso	-10.48	16.40	-0.73
root	154.86	24.85	2741.64	-3.60	7.97	-0.18
LeftShoulder	8.32	-7.89	-78.52
RightShoulder	28.04	34.46	-1.16
LeftElbow	8.98	23.39	-73.78
RightElbow	23.70	15.38	-11.29
LeftWrist	9.12	25.27	-73.45
RightWrist	23.73	15.64	-11.17
LeftHand	9.12	25.27	-73.45
RightHand	23.73	15.64	-11.17
LeftHip	4.62	36.86	0.92
RightHip	-0.27	-31.08	0.98
LeftKnee	-8.66	36.86	0.92
RightKnee	-7.72	-31.08	0.98
LeftAnkle	-8.66	36.86	0.92
RightAnkle	-7.72	-31.08	0.98
